<svg viewBox="0 0 39 39" fill="none" xmlns="http://www.w3.org/2000/svg">
<path d="M18.7929 23.6679C18.4024 24.0584 18.4024 24.6916 18.7929 25.0821C19.1834 25.4726 19.8166 25.4726 20.2071 25.0821L18.7929 23.6679ZM24.375 19.5L25.0821 20.2071C25.2696 20.0196 25.375 19.7652 25.375 19.5C25.375 19.2348 25.2696 18.9804 25.0821 18.7929L24.375 19.5ZM20.2071 13.9179C19.8166 13.5274 19.1834 13.5274 18.7929 13.9179C18.4024 14.3084 18.4024 14.9416 18.7929 15.3321L20.2071 13.9179ZM6.5 18.5C5.94772 18.5 5.5 18.9477 5.5 19.5C5.5 20.0523 5.94772 20.5 6.5 20.5L6.5 18.5ZM20.2071 25.0821L25.0821 20.2071L23.6679 18.7929L18.7929 23.6679L20.2071 25.0821ZM25.0821 18.7929L20.2071 13.9179L18.7929 15.3321L23.6679 20.2071L25.0821 18.7929ZM6.5 20.5L24.375 20.5V18.5L6.5 18.5L6.5 20.5Z" stroke="#2B2B2B" fill="#f02958" stroke-width="1.2"/>
<path d="M14.625 11.375V8.125C14.625 7.22754 15.3525 6.5 16.25 6.5H30.875C31.7725 6.5 32.5 7.22754 32.5 8.125V30.875C32.5 31.7725 31.7725 32.5 30.875 32.5H16.25C15.3525 32.5 14.625 31.7725 14.625 30.875V27.625" stroke="#2B2B2B" stroke-width="2" stroke-linecap="round" stroke-linejoin="round"/>
</svg>
