<svg  viewBox="0 0 49 49" fill="none" xmlns="http://www.w3.org/2000/svg">
<path d="M24.5 42.875C34.6482 42.875 42.875 34.6482 42.875 24.5C42.875 14.3518 34.6482 6.125 24.5 6.125C14.3518 6.125 6.125 14.3518 6.125 24.5C6.125 34.6482 14.3518 42.875 24.5 42.875Z" stroke="#2B2B2B" stroke-width="2" stroke-linecap="round" stroke-linejoin="round"/>
<path d="M35.1499 39.47C32.5331 36.5474 28.7309 34.7083 24.4993 34.7083C20.2676 34.7083 16.4655 36.5474 13.8486 39.47" stroke="#2B2B2B" stroke-width="2" stroke-linecap="round" stroke-linejoin="round"/>
<path d="M24.5 28.5832C27.8827 28.5832 30.625 25.841 30.625 22.4583C30.625 19.0755 27.8827 16.3333 24.5 16.3333C21.1173 16.3333 18.375 19.0755 18.375 22.4583C18.375 25.841 21.1173 28.5832 24.5 28.5832Z" stroke="#2B2B2B" stroke-width="2" stroke-linecap="round" stroke-linejoin="round"/>
</svg>
